<svg width="15" height="16" viewBox="0 0 15 16" fill="none" xmlns="http://www.w3.org/2000/svg">
<g clip-path="url(#clip0_2_2)">
<path fill-rule="evenodd" clip-rule="evenodd" d="M3.05254 12.5561C4.31166 11.9307 5.84249 11.5967 7.4082 11.5967C8.97391 11.5967 10.5047 11.9307 11.7639 12.5561C13.0227 13.1814 13.9553 14.0719 14.3833 15.1059C14.4623 15.2968 14.3471 15.507 14.1258 15.5752C13.9046 15.6434 13.6611 15.5439 13.5821 15.3529C13.2345 14.5133 12.458 13.7481 11.3395 13.1925C10.2212 12.6371 8.83914 12.331 7.4082 12.331C5.97727 12.331 4.59519 12.6371 3.47691 13.1925C2.35839 13.7481 1.5819 14.5133 1.23432 15.3529C1.15528 15.5439 0.911844 15.6434 0.690598 15.5752C0.469352 15.507 0.354074 15.2968 0.433118 15.1059C0.861127 14.0719 1.79366 13.1814 3.05254 12.5561Z" fill="white"/>
<path fill-rule="evenodd" clip-rule="evenodd" d="M7.4082 1.48557C5.68998 1.48557 4.29709 2.87846 4.29709 4.59668C4.29709 6.3149 5.68998 7.70779 7.4082 7.70779C9.12642 7.70779 10.5193 6.3149 10.5193 4.59668C10.5193 2.87846 9.12642 1.48557 7.4082 1.48557ZM3.4082 4.59668C3.4082 2.38754 5.19906 0.59668 7.4082 0.59668C9.61734 0.59668 11.4082 2.38754 11.4082 4.59668C11.4082 6.80582 9.61734 8.59668 7.4082 8.59668C5.19906 8.59668 3.4082 6.80582 3.4082 4.59668Z" fill="white"/>
</g>
<defs>
<clipPath id="clip0_2_2">
<rect width="15" height="16" fill="white"/>
</clipPath>
</defs>
</svg>
