<svg width="23" height="26" viewBox="0 0 23 26" fill="none" xmlns="http://www.w3.org/2000/svg">
<path id="Vector" fill-rule="evenodd" clip-rule="evenodd" d="M22.8849 20.0281C22.6975 22.2353 20.5308 22.6492 20.5308 22.6492L15.434 22.6992C14.8573 26.1192 11.9225 25.9995 11.9225 25.9995C8.78004 25.8194 8.4542 22.6801 8.4542 22.6801L3.39541 22.6264C1.05055 22.3686 0.895996 19.7098 0.895996 19.7098C1.10707 16.8364 3.5961 16.7994 3.84696 16.8006C4.09783 16.8012 4.10532 16.2707 4.10532 16.2707C4.10532 16.2707 4.06553 13.1185 4.05111 11.4838C4.03669 9.84905 4.5984 8.32536 4.5984 8.32536C5.70393 4.6019 9.37346 3.39097 9.37346 3.39097C8.82906 0.161005 12.0442 0 12.0442 0C15.2933 0.566909 14.4571 3.43538 14.4571 3.43538C16.3475 4.02574 17.5522 5.64442 17.5522 5.64442C19.521 7.64248 19.72 10.4924 19.72 10.4924C19.72 10.4924 19.7488 16.0357 19.7442 16.4447C19.7396 16.8543 20.2425 16.8043 20.2425 16.8043C23.2171 17.2275 22.8849 20.0281 22.8849 20.0281ZM11.9063 24.3567C13.5753 24.3567 13.8498 22.6881 13.8498 22.6881L10.0049 22.6918C10.0049 22.6918 10.3135 24.3567 11.9063 24.3567ZM11.8665 1.69394C10.6947 1.69394 10.8071 3.02948 10.8071 3.02948C10.8071 3.02948 11.3302 2.93325 11.8971 2.92461C12.4513 2.91659 13.0493 2.99555 13.0493 2.99555C13.0493 2.99555 13.1035 1.69394 11.8665 1.69394ZM19.8803 18.4027C19.2269 18.2947 18.2016 17.7574 18.2016 16.5971C18.2067 14.2208 18.1768 10.6078 18.1768 10.6078C18.1768 10.6078 17.6912 8.04715 16.3792 6.58701C15.0182 5.07257 12.8221 4.65557 12.4686 4.62225C11.7668 4.55502 11.0626 4.62411 11.0626 4.62411C11.0626 4.62411 9.21602 5.00348 7.98939 6.00838C6.97728 6.83622 5.98075 9.0761 5.98075 9.0761C5.98075 9.0761 5.76333 9.7596 5.67625 11.0137C5.57763 12.4264 5.60878 14.5318 5.62089 16.6378C5.62319 17.0011 5.20393 18.2096 4.20913 18.3866C2.48076 18.3866 2.41675 19.7413 2.56265 20.1163C2.72355 20.5284 2.84639 20.914 4.11282 20.914C6.81984 20.914 11.4081 20.9232 11.4081 20.9232C11.4081 20.9232 17.7702 20.9627 20.5308 20.9602C21.8976 20.5216 21.4761 18.4027 19.8803 18.4027Z" fill="black"/>
</svg>
