<svg width="15" height="19" viewBox="0 0 15 19" fill="none" xmlns="http://www.w3.org/2000/svg">
<path id="Vector" fill-rule="evenodd" clip-rule="evenodd" d="M14.6593 14.0357C14.5343 15.5071 13.0899 15.7831 13.0899 15.7831L9.69199 15.8164C9.30753 18.0964 7.35098 18.0166 7.35098 18.0166C5.25603 17.8965 5.03881 15.8036 5.03881 15.8036L1.66627 15.7679C0.103037 15.596 0 13.8235 0 13.8235C0.140714 11.9079 1.80007 11.8832 1.96731 11.884C2.13455 11.8844 2.13955 11.5307 2.13955 11.5307C2.13955 11.5307 2.11302 9.42926 2.10341 8.33944C2.0938 7.24963 2.46827 6.23384 2.46827 6.23384C3.20529 3.75153 5.65164 2.94424 5.65164 2.94424C5.28871 0.79093 7.4321 0.683594 7.4321 0.683594C9.59818 1.06153 9.04071 2.97385 9.04071 2.97385C10.301 3.36742 11.1041 4.44654 11.1041 4.44654C12.4167 5.77858 12.5493 7.67856 12.5493 7.67856C12.5493 7.67856 12.5686 11.3741 12.5655 11.6467C12.5624 11.9198 12.8977 11.8865 12.8977 11.8865C14.8807 12.1686 14.6593 14.0357 14.6593 14.0357ZM7.34022 16.9214C8.45286 16.9214 8.63587 15.809 8.63587 15.809L6.07263 15.8115C6.07263 15.8115 6.27832 16.9214 7.34022 16.9214ZM7.31369 1.81289C6.53245 1.81289 6.60742 2.70325 6.60742 2.70325C6.60742 2.70325 6.95614 2.63909 7.33406 2.63333C7.70354 2.62799 8.10223 2.68063 8.10223 2.68063C8.10223 2.68063 8.13837 1.81289 7.31369 1.81289ZM12.6562 12.952C12.2206 12.8801 11.537 12.5219 11.537 11.7483C11.5405 10.1642 11.5205 7.75546 11.5205 7.75546C11.5205 7.75546 11.1968 6.04836 10.3221 5.07493C9.41479 4.06531 7.95075 3.7873 7.71507 3.7651C7.24718 3.72027 6.77774 3.76633 6.77774 3.76633C6.77774 3.76633 5.54668 4.01925 4.72893 4.68918C4.05419 5.24108 3.38983 6.73433 3.38983 6.73433C3.38983 6.73433 3.24489 7.18999 3.18684 8.02607C3.12109 8.96783 3.14185 10.3714 3.14993 11.7754C3.15146 12.0177 2.87196 12.8233 2.20875 12.9413C1.05651 12.9413 1.01384 13.8444 1.11111 14.0945C1.21837 14.3692 1.30026 14.6262 2.14455 14.6262C3.94923 14.6262 7.00804 14.6324 7.00804 14.6324C7.00804 14.6324 11.2495 14.6587 13.0899 14.6571C14.0011 14.3647 13.72 12.952 12.6562 12.952Z" fill="#F6F7FA"/>
</svg>
