<svg width="18" height="18" viewBox="0 0 18 18" fill="none" xmlns="http://www.w3.org/2000/svg">
<path id="Vector 1 (Stroke)" fill-rule="evenodd" clip-rule="evenodd" d="M1.01988 0.439376C1.41822 0.0410413 2.06404 0.0410413 2.46238 0.439376L9.22113 7.19813L15.9799 0.439376C16.3782 0.0410413 17.024 0.0410413 17.4224 0.439376C17.8207 0.837711 17.8207 1.48354 17.4224 1.88187L10.6636 8.64062L17.4224 15.3994C17.8207 15.7977 17.8207 16.4435 17.4224 16.8419C17.024 17.2402 16.3782 17.2402 15.9799 16.8419L9.22113 10.0831L2.46238 16.8419C2.06404 17.2402 1.41822 17.2402 1.01988 16.8419C0.621547 16.4435 0.621547 15.7977 1.01988 15.3994L7.77863 8.64062L1.01988 1.88187C0.621547 1.48354 0.621547 0.837711 1.01988 0.439376Z" fill="#1E2439"/>
</svg>
