<svg width="9" height="5" viewBox="0 0 9 5" fill="none" xmlns="http://www.w3.org/2000/svg">
<path id="Vector" fill-rule="evenodd" clip-rule="evenodd" d="M0.101684 0.339777C0.133835 0.313176 0.172029 0.292071 0.214078 0.277671C0.256128 0.263271 0.301206 0.255859 0.346732 0.255859C0.392258 0.255859 0.437337 0.263271 0.479386 0.277671C0.521435 0.292071 0.559629 0.313176 0.59178 0.339777L4.50009 3.56581L8.4084 0.339777C8.44058 0.313219 8.47878 0.292153 8.52083 0.27778C8.56288 0.263407 8.60794 0.256009 8.65345 0.256009C8.69896 0.256009 8.74402 0.263407 8.78607 0.27778C8.82811 0.292153 8.86632 0.313219 8.8985 0.339777C8.93068 0.366335 8.9562 0.397863 8.97362 0.432563C8.99104 0.467262 9 0.504453 9 0.542011C9 0.57957 8.99104 0.61676 8.97362 0.65146C8.9562 0.686159 8.93068 0.717688 8.8985 0.744245L4.74514 4.17194C4.71299 4.19854 4.67479 4.21965 4.63274 4.23405C4.59069 4.24845 4.54562 4.25586 4.50009 4.25586C4.45456 4.25586 4.40949 4.24845 4.36744 4.23405C4.32539 4.21965 4.28719 4.19854 4.25504 4.17194L0.101684 0.744245C0.0694515 0.717712 0.0438787 0.686191 0.0264301 0.651488C0.00898154 0.616786 0 0.579583 0 0.542011C0 0.50444 0.00898154 0.467237 0.0264301 0.432534C0.0438787 0.397832 0.0694515 0.366311 0.101684 0.339777Z" fill="#F6F7FA"/>
</svg>
