<svg width="13" height="13" viewBox="0 0 13 13" fill="none" xmlns="http://www.w3.org/2000/svg">
<g id="heart">
<path id="Icon" d="M11.1945 2.79419C10.9391 2.5387 10.6359 2.33602 10.3022 2.19774C9.96842 2.05945 9.61072 1.98828 9.24947 1.98828C8.88823 1.98828 8.53053 2.05945 8.1968 2.19774C7.86307 2.33602 7.55985 2.5387 7.30447 2.79419L6.77447 3.32419L6.24447 2.79419C5.72863 2.27835 5.02899 1.98855 4.29947 1.98855C3.56996 1.98855 2.87032 2.27835 2.35447 2.79419C1.83863 3.31004 1.54883 4.00968 1.54883 4.73919C1.54883 5.46871 1.83863 6.16835 2.35447 6.68419L2.88447 7.21419L6.77447 11.1042L10.6645 7.21419L11.1945 6.68419C11.45 6.42882 11.6526 6.1256 11.7909 5.79187C11.9292 5.45814 12.0004 5.10044 12.0004 4.73919C12.0004 4.37795 11.9292 4.02025 11.7909 3.68652C11.6526 3.35279 11.45 3.04957 11.1945 2.79419V2.79419Z" fill="#EF5757"/>
</g>
</svg>
