<svg width="16" height="16" viewBox="0 0 16 16" fill="none" xmlns="http://www.w3.org/2000/svg">
<path id="Icon (Stroke)" fill-rule="evenodd" clip-rule="evenodd" d="M7.9082 1.97436C4.31228 1.97436 1.39721 4.88943 1.39721 8.48535C1.39721 12.0813 4.31228 14.9963 7.9082 14.9963C11.5041 14.9963 14.4192 12.0813 14.4192 8.48535C14.4192 4.88943 11.5041 1.97436 7.9082 1.97436ZM0.408203 8.48535C0.408203 4.34322 3.76607 0.985352 7.9082 0.985352C12.0503 0.985352 15.4082 4.34322 15.4082 8.48535C15.4082 12.6275 12.0503 15.9854 7.9082 15.9854C3.76607 15.9854 0.408203 12.6275 0.408203 8.48535ZM8.12386 5.49711C7.74978 5.43295 7.36507 5.50324 7.03785 5.69555C6.71063 5.88786 6.46204 6.18977 6.33609 6.5478C6.24546 6.80543 5.96314 6.94082 5.70551 6.85019C5.44787 6.75956 5.31249 6.47724 5.40312 6.2196C5.60658 5.64124 6.00816 5.15354 6.53673 4.84289C7.06531 4.53224 7.68678 4.41869 8.29106 4.52234C8.89534 4.62599 9.44344 4.94015 9.83828 5.4092C10.233 5.87809 10.4491 6.47152 10.4483 7.08443C10.4482 8.0474 9.73253 8.70178 9.17729 9.07194C8.8846 9.26707 8.59543 9.4113 8.38138 9.50643C8.27365 9.55431 8.18319 9.59053 8.11851 9.61517C8.08612 9.62751 8.06008 9.63699 8.04143 9.64362L8.01908 9.65145L8.01229 9.65377L8.01003 9.65453L8.00918 9.65481L8.00883 9.65493C8.00868 9.65498 8.00854 9.65503 7.85216 9.1859L8.00854 9.65503C7.74944 9.74139 7.46939 9.60137 7.38303 9.34228C7.29669 9.08327 7.4366 8.80332 7.69553 8.71686L7.69578 8.71677L7.69729 8.71625L7.7101 8.71176C7.72223 8.70745 7.74134 8.70051 7.76642 8.69095C7.81667 8.67181 7.8904 8.64235 7.9797 8.60266C8.15972 8.52266 8.39596 8.40418 8.62868 8.24904C9.12422 7.91867 9.4593 7.52229 9.4593 7.08425L9.4593 7.08352C9.45987 6.70397 9.32609 6.33648 9.08167 6.04612C8.83724 5.75576 8.49794 5.56128 8.12386 5.49711ZM10.4483 7.08443C10.4483 7.08461 10.4483 7.0848 10.4483 7.08499L9.95381 7.08425H10.4483C10.4483 7.08431 10.4483 7.08437 10.4483 7.08443ZM7.4137 11.9881C7.4137 11.715 7.6351 11.4936 7.9082 11.4936H7.91521C8.18832 11.4936 8.40971 11.715 8.40971 11.9881C8.40971 12.2612 8.18832 12.4826 7.91521 12.4826H7.9082C7.6351 12.4826 7.4137 12.2612 7.4137 11.9881Z" fill="white"/>
</svg>
