<svg width="15" height="15" viewBox="0 0 15 15" fill="none" xmlns="http://www.w3.org/2000/svg">
<path fill-rule="evenodd" clip-rule="evenodd" d="M3.54033 11.9594C4.79946 11.334 6.33029 11 7.896 11C9.46171 11 10.9925 11.334 12.2517 11.9594C13.5105 12.5847 14.4431 13.4752 14.8711 14.5092C14.9501 14.7002 14.8348 14.9103 14.6136 14.9785C14.3924 15.0467 14.1489 14.9472 14.0699 14.7563C13.7223 13.9166 12.9458 13.1514 11.8273 12.5959C10.709 12.0404 9.32693 11.7343 7.896 11.7343C6.46506 11.7343 5.08298 12.0404 3.96471 12.5959C2.84618 13.1514 2.06969 13.9166 1.72211 14.7563C1.64307 14.9472 1.39964 15.0467 1.17839 14.9785C0.957145 14.9103 0.841867 14.7002 0.920911 14.5092C1.34892 13.4752 2.28146 12.5847 3.54033 11.9594Z" fill="#424242"/>
<path fill-rule="evenodd" clip-rule="evenodd" d="M7.896 0.888889C6.17778 0.888889 4.78488 2.28178 4.78488 4C4.78488 5.71822 6.17778 7.11111 7.896 7.11111C9.61422 7.11111 11.0071 5.71822 11.0071 4C11.0071 2.28178 9.61422 0.888889 7.896 0.888889ZM3.896 4C3.896 1.79086 5.68686 0 7.896 0C10.1051 0 11.896 1.79086 11.896 4C11.896 6.20914 10.1051 8 7.896 8C5.68686 8 3.896 6.20914 3.896 4Z" fill="#424242"/>
</svg>
