<svg width="15" height="14" viewBox="0 0 15 14" fill="none" xmlns="http://www.w3.org/2000/svg">
<g clip-path="url(#clip0_2040_2480)">
<path d="M14.8216 13.0022L10.8048 8.97918C11.5967 8.02872 12.073 6.81407 12.073 5.48744C12.073 2.46088 9.59114 0 6.53837 0C3.4856 0 0.998047 2.46375 0.998047 5.49031C0.998047 8.51687 3.47986 10.9777 6.53263 10.9777C7.82948 10.9777 9.02305 10.5327 9.96987 9.78895L14.001 13.8234C14.2363 14.0589 14.5863 14.0589 14.8216 13.8234C15.0569 13.5879 15.0569 13.2376 14.8216 13.0022V13.0022ZM2.1744 5.49031C2.1744 3.11271 4.13115 1.18019 6.53263 1.18019C8.9341 1.18019 10.8909 3.11271 10.8909 5.49031C10.8909 7.86791 8.9341 9.80043 6.53263 9.80043C4.13115 9.80043 2.1744 7.86504 2.1744 5.49031Z" fill="#333333"/>
</g>
<defs>
<clipPath id="clip0_2040_2480">
<rect width="14" height="14" fill="white" transform="translate(0.998047)"/>
</clipPath>
</defs>
</svg>
