<svg width="15" height="14" viewBox="0 0 15 14" fill="gray" xmlns="http://www.w3.org/2000/svg">
	<g id="Frame" clip-path="url(#clip0_2106_2685)">
		<rect width="14" height="14" transform="translate(0.998108)" fill="white" />
		<path id="Vector" d="M14.8217 13.0022L10.8048 8.97918C11.5967 8.02872 12.073 6.81407 12.073 5.48744C12.073 2.46088 9.5912 0 6.53843 0C3.48566 0 0.998108 2.46375 0.998108 5.49031C0.998108 8.51687 3.47992 10.9777 6.53269 10.9777C7.82954 10.9777 9.02311 10.5327 9.96993 9.78895L14.0011 13.8234C14.2363 14.0589 14.5864 14.0589 14.8217 13.8234C15.0569 13.5879 15.0569 13.2376 14.8217 13.0022ZM2.17446 5.49031C2.17446 3.11271 4.13122 1.18019 6.53269 1.18019C8.93417 1.18019 10.8909 3.11271 10.8909 5.49031C10.8909 7.86791 8.93417 9.80043 6.53269 9.80043C4.13122 9.80043 2.17446 7.86504 2.17446 5.49031Z" fill="#8991A3" />
	</g>
	<defs>
		<clipPath id="clip0_2106_2685">
			<rect width="14" height="14" fill="white" transform="translate(0.998108)" />
		</clipPath>
	</defs>
</svg>
