<svg width="15" height="14" viewBox="0 0 15 14" fill="none" xmlns="http://www.w3.org/2000/svg">
<path fill-rule="evenodd" clip-rule="evenodd" d="M14.0724 1.07093H7.48417C7.39321 1.07093 7.31947 1.14467 7.31947 1.23564V12.7651C7.31947 12.856 7.39321 12.9298 7.48417 12.9298H14.0724C14.1634 12.9298 14.2371 12.856 14.2371 12.7651V1.23564C14.2371 1.14467 14.1634 1.07093 14.0724 1.07093ZM7.48417 0.412109C7.02935 0.412109 6.66064 0.780816 6.66064 1.23564V12.7651C6.66064 13.2199 7.02935 13.5886 7.48417 13.5886H14.0724C14.5272 13.5886 14.8959 13.2199 14.8959 12.7651V1.23564C14.8959 0.780816 14.5272 0.412109 14.0724 0.412109H7.48417Z" fill="#424242"/>
<path fill-rule="evenodd" clip-rule="evenodd" d="M3.8084 4.62911C3.95134 4.76219 3.95134 4.97795 3.8084 5.11103L2.14564 6.65911H10.4123C10.6145 6.65911 10.7783 6.81168 10.7783 6.99989C10.7783 7.18809 10.6145 7.34066 10.4123 7.34066H2.14564L3.8084 8.88874C3.95134 9.02182 3.95134 9.23758 3.8084 9.37066C3.66546 9.50374 3.43372 9.50374 3.29078 9.37066L1.0032 7.24085C0.860262 7.10777 0.860262 6.892 1.0032 6.75892L3.29078 4.62911C3.43372 4.49603 3.66546 4.49603 3.8084 4.62911Z" fill="#424242"/>
</svg>
