<svg width="16" height="16" viewBox="0 0 16 16" fill="none" xmlns="http://www.w3.org/2000/svg">
<g id="Group 1530">
<path id="Union" fill-rule="evenodd" clip-rule="evenodd" d="M15.5828 9.75763C15.5993 9.70277 15.6082 9.64461 15.6082 9.58438C15.6082 7.32747 14.8244 5.14949 13.4095 3.53242C11.9923 1.91278 10.0517 0.984375 8.0082 0.984375C5.96474 0.984375 4.02409 1.91278 2.60691 3.53242C1.19197 5.14949 0.408203 7.32747 0.408203 9.58438C0.408203 9.64461 0.417079 9.70277 0.433595 9.75762C0.41688 9.86435 0.408203 9.97374 0.408203 10.0852V13.0852C0.408203 14.245 1.34841 15.1852 2.5082 15.1852C3.668 15.1852 4.6082 14.245 4.6082 13.0852V10.0852C4.6082 8.92536 3.668 7.98516 2.5082 7.98516C2.23426 7.98516 1.97257 8.03761 1.73263 8.13302C1.98219 6.69254 2.59906 5.3637 3.51 4.32262C4.71833 2.94168 6.33864 2.18438 8.0082 2.18438C9.67777 2.18438 11.2981 2.94168 12.5064 4.32262C13.4173 5.3637 14.0342 6.69254 14.2838 8.13302C14.0438 8.03761 13.7821 7.98516 13.5082 7.98516C12.3484 7.98516 11.4082 8.92536 11.4082 10.0852V13.0852C11.4082 14.245 12.3484 15.1852 13.5082 15.1852C14.668 15.1852 15.6082 14.245 15.6082 13.0852V10.0852C15.6082 9.97374 15.5995 9.86435 15.5828 9.75763ZM2.5082 9.18516C2.01115 9.18516 1.6082 9.5881 1.6082 10.0852V13.0852C1.6082 13.5822 2.01115 13.9852 2.5082 13.9852C3.00526 13.9852 3.4082 13.5822 3.4082 13.0852V10.0852C3.4082 9.5881 3.00526 9.18516 2.5082 9.18516ZM13.5082 9.18516C13.0111 9.18516 12.6082 9.5881 12.6082 10.0852V13.0852C12.6082 13.5822 13.0111 13.9852 13.5082 13.9852C14.0053 13.9852 14.4082 13.5822 14.4082 13.0852V10.0852C14.4082 9.5881 14.0053 9.18516 13.5082 9.18516Z" fill="white"/>
</g>
</svg>
