<svg width="14" height="8" viewBox="0 0 14 8" fill="none" xmlns="http://www.w3.org/2000/svg">
<path fill-rule="evenodd" clip-rule="evenodd" d="M0.541913 0.645917C0.588359 0.599354 0.643535 0.562411 0.70428 0.537204C0.765025 0.511998 0.830146 0.499023 0.895913 0.499023C0.961681 0.499023 1.0268 0.511998 1.08755 0.537204C1.14829 0.562411 1.20347 0.599354 1.24991 0.645917L6.89591 6.29292L12.5419 0.645917C12.5884 0.599429 12.6436 0.562553 12.7043 0.537394C12.7651 0.512234 12.8302 0.499285 12.8959 0.499285C12.9617 0.499285 13.0268 0.512234 13.0875 0.537394C13.1482 0.562553 13.2034 0.599429 13.2499 0.645917C13.2964 0.692405 13.3333 0.747594 13.3584 0.808333C13.3836 0.869073 13.3965 0.934173 13.3965 0.999917C13.3965 1.06566 13.3836 1.13076 13.3584 1.1915C13.3333 1.25224 13.2964 1.30743 13.2499 1.35392L7.24991 7.35392C7.20347 7.40048 7.14829 7.43742 7.08755 7.46263C7.0268 7.48784 6.96168 7.50081 6.89591 7.50081C6.83015 7.50081 6.76503 7.48784 6.70428 7.46263C6.64353 7.43742 6.58836 7.40048 6.54191 7.35392L0.541913 1.35392C0.49535 1.30747 0.458407 1.2523 0.433201 1.19155C0.407994 1.13081 0.39502 1.06568 0.39502 0.999917C0.39502 0.93415 0.407994 0.869028 0.433201 0.808283C0.458407 0.747538 0.49535 0.692363 0.541913 0.645917Z" fill="black"/>
</svg>
